<svg width="108" height="84" xmlns="http://www.w3.org/2000/svg"><g transform="translate(0 -2)" stroke="currentColor" stroke-width="2" fill="none" fill-rule="evenodd"><path d="M86 30.273H73.323l-2.418-3.809a1 1 0 0 0-.844-.464H37.916a1 1 0 0 0-.845.464l-2.418 3.809H22a2 2 0 0 0-2 2V69a2 2 0 0 0 2 2h64a2 2 0 0 0 2-2V32.273a2 2 0 0 0-2-2z"/><circle cx="53.5" cy="54.5" r="9.5"/><path d="M31 39l6 6m-6 0l6-6m34 0l6 6m-6 0l6-6" stroke-linecap="round"/><path d="M88 54l8-5-8 5zm8-5l-8-11 8 11z" stroke-linecap="round" stroke-linejoin="round"/><path d="M39 71v6m30-6v6m-59 8c14.18-4.667 28.993-7 44.442-7C69.89 78 85.41 80.333 101 85M1.077 9h25.846M31 9h6m21.1 7h8.8m4.15 0h18.9M81.077 3h25.846M20 53c-2.667.722-4 1.444-4 2.167 0 .722-.667 4.333-2 10.833" stroke-linecap="round"/></g></svg>