<svg width="33" height="22" viewBox="0 0 32 22" xmlns="http://www.w3.org/2000/svg"><g stroke="currentColor" fill="none" fill-rule="evenodd"><path d="M30 2.5h-4.405l-.836-1.308A1.5 1.5 0 0 0 23.495.5h-14a1.5 1.5 0 0 0-1.265.692L7.394 2.5H3A2.5 2.5 0 0 0 .5 5v14A2.5 2.5 0 0 0 3 21.5h27a2.5 2.5 0 0 0 2.5-2.5V5A2.5 2.5 0 0 0 30 2.5z"/><g stroke-linecap="round"><path d="M19.082 16.356a5.5 5.5 0 1 0-5.164-9.712 5.5 5.5 0 0 0 5.164 9.712z" stroke-dasharray="14,50"/><path d="M16.672 6.018l1.78-1.156M16.672 6.018l1.156 1.779"/><g><path d="M13.834 6.69a5.5 5.5 0 1 0 5.332 9.62 5.5 5.5 0 0 0-5.332-9.62z" stroke-dasharray="14,50"/><path d="M16.424 16.985l-1.76 1.186M16.424 16.985l-1.187-1.76"/></g></g></g></svg>