<svg width="55" height="36" xmlns="http://www.w3.org/2000/svg"><g fill="none" fill-rule="evenodd"><path d="M52 4.273h-9.428l-1.835-2.819A1 1 0 0 0 39.899 1H15.083a1 1 0 0 0-.838.454l-1.836 2.819H3a2 2 0 0 0-2 2V33a2 2 0 0 0 2 2h49a2 2 0 0 0 2-2V6.273a2 2 0 0 0-2-2z" stroke="currentColor" stroke-width="2"/><path d="M28.5 10a9.5 9.5 0 1 0 0 19 9.5 9.5 0 0 0 0-19z" stroke="currentColor" stroke-width="2" stroke-linecap="round" stroke-dasharray="46,62"><animateTransform attributeName="transform" attributeType="XML" type="rotate" from="0 28.5 19.5" to="360 28.5 19.5" dur="1s" repeatCount="indefinite"/></path><circle fill="#E83737" cx="47.5" cy="9.5" r="1.5"/></g></svg>